<svg xmlns="http://www.w3.org/2000/svg" xmlns:xlink="http://www.w3.org/1999/xlink" viewBox="0 0 199.51 263.58"><defs><style>.cls-1{fill:#f0f0f8;}.cls-2{fill:url(#linear-gradient);}.cls-3{fill:url(#linear-gradient-2);}.cls-4{fill:#e8eefe;}.cls-5{fill:#ffb996;}.cls-6{fill:#2b2a4f;}.cls-7{fill:#0069b5;}.cls-8{fill:#0079d1;}.cls-9{fill:url(#linear-gradient-3);}.cls-10{fill:#c8eaf7;}.cls-11{fill:#deeff7;}.cls-12{fill:#393769;}.cls-13{fill:#0076d5;}.cls-14{fill:#c9eaf7;}.cls-15{fill:#b7b7ed;}.cls-16{fill:#f25d59;}.cls-17{fill:#de5552;}.cls-18{fill:#474482;}.cls-19{fill:#dba927;}.cls-20{fill:#fbc12d;}.cls-21{fill:url(#linear-gradient-4);}.cls-22{fill:url(#linear-gradient-5);}.cls-23{fill:#ff855d;}.cls-24{fill:#ffb81d;}.cls-25{fill:#ffb620;}.cls-26{fill:url(#linear-gradient-6);}.cls-27{fill:#70c146;}.cls-28{fill:url(#linear-gradient-7);}.cls-29{fill:#ff9b51;}.cls-30{fill:url(#linear-gradient-8);}.cls-31{fill:url(#linear-gradient-9);}</style><linearGradient id="linear-gradient" x1="140.33" y1="31.22" x2="189.58" y2="31.22" gradientUnits="userSpaceOnUse"><stop offset="0" stop-color="#e7f1f6"/><stop offset="1" stop-color="#bfe2f6"/></linearGradient><linearGradient id="linear-gradient-2" x1="41.49" y1="27.02" x2="41.49" y2="34.55" xlink:href="#linear-gradient"/><linearGradient id="linear-gradient-3" x1="-45.09" y1="114.2" x2="0.72" y2="114.2" gradientTransform="matrix(-1, 0, 0, 1, 45.38, 0)" xlink:href="#linear-gradient"/><linearGradient id="linear-gradient-4" x1="96.84" y1="144.65" x2="135.18" y2="144.65" gradientTransform="matrix(1, 0, 0.3, 0.96, -51.74, 6.13)" gradientUnits="userSpaceOnUse"><stop offset="0" stop-color="#4f9aed"/><stop offset="1" stop-color="#306bc9"/></linearGradient><linearGradient id="linear-gradient-5" x1="144.52" y1="194.38" x2="161.06" y2="221" gradientUnits="userSpaceOnUse"><stop offset="0" stop-color="#fbc12d"/><stop offset="1" stop-color="#f45f7d"/></linearGradient><linearGradient id="linear-gradient-6" x1="179.19" y1="190.82" x2="169.61" y2="215.57" gradientUnits="userSpaceOnUse"><stop offset="0" stop-color="#fbc12d"/><stop offset="0.17" stop-color="#ddc137"/><stop offset="0.41" stop-color="#bac042"/><stop offset="0.63" stop-color="#a1c04a"/><stop offset="0.83" stop-color="#91c04f"/><stop offset="1" stop-color="#8cc051"/></linearGradient><linearGradient id="linear-gradient-7" x1="191.67" y1="211.49" x2="176.4" y2="223.29" gradientUnits="userSpaceOnUse"><stop offset="0" stop-color="#fbc12d"/><stop offset="0.28" stop-color="#f4b13d"/><stop offset="0.7" stop-color="#eca04f"/><stop offset="1" stop-color="#e99a56"/></linearGradient><linearGradient id="linear-gradient-8" x1="157.32" y1="241.31" x2="177.44" y2="241.31" gradientTransform="matrix(1, 0, 0, 1, 0, 0)" xlink:href="#linear-gradient-4"/><linearGradient id="linear-gradient-9" x1="167.38" y1="249.26" x2="167.38" y2="253.26" gradientTransform="matrix(1, 0, 0, 1, 0, 0)" xlink:href="#linear-gradient-4"/></defs><title>Asset 1</title><g id="Layer_2" data-name="Layer 2"><g id="plant"><path class="cls-1" d="M13,96.71H45.47a138.51,138.51,0,0,1,5.8-37.85H23A86.32,86.32,0,0,0,13,96.71Z"/><path class="cls-1" d="M97,96.71V58.86H57.1A131.46,131.46,0,0,0,51,96.71Z"/><path class="cls-1" d="M65.71,39.5a91.73,91.73,0,0,0-6.64,13.8H97V15.59C85.26,16.74,74.25,25.12,65.71,39.5Z"/><path class="cls-1" d="M138.58,36.66a98.64,98.64,0,0,1,7.79,16.64h26.88a86.86,86.86,0,0,0-56.36-38.94C125,18.76,132.44,26.32,138.58,36.66Z"/><path class="cls-1" d="M51.3,140.12a138.39,138.39,0,0,1-5.83-37.85H13a86.41,86.41,0,0,0,10.06,37.85Z"/><path class="cls-1" d="M97,102.27H51a131.06,131.06,0,0,0,6.09,37.85H97Z"/><path class="cls-1" d="M148.47,96.71a131.81,131.81,0,0,0-6.06-37.85H102.53V96.71Z"/><path class="cls-1" d="M102.53,15.59V53.3h37.91a91.73,91.73,0,0,0-6.64-13.8C125.26,25.12,114.25,16.74,102.53,15.59Z"/><path class="cls-1" d="M60.93,162.23a97.5,97.5,0,0,1-7.76-16.54H26.31a86.87,86.87,0,0,0,56.31,38.84C74.48,180.14,67.07,172.58,60.93,162.23Z"/><path class="cls-1" d="M53.14,53.3a98.64,98.64,0,0,1,7.79-16.64c6.14-10.34,13.55-17.9,21.69-22.3A86.85,86.85,0,0,0,26.25,53.3Z"/><path class="cls-1" d="M146.34,145.69a98.28,98.28,0,0,1-7.76,16.54c-6.14,10.35-13.56,17.91-21.69,22.3a86.87,86.87,0,0,0,56.31-38.84Z"/><path class="cls-1" d="M148.23,58.86A138.13,138.13,0,0,1,154,96.71h32.46a86.45,86.45,0,0,0-10-37.85Z"/><path class="cls-1" d="M133.8,159.39a91.86,91.86,0,0,0,6.6-13.7H102.53v37.62C114.25,182.16,125.26,173.77,133.8,159.39Z"/><path class="cls-1" d="M186.48,102.27H154a137.63,137.63,0,0,1-5.83,37.85h28.23A86.27,86.27,0,0,0,186.48,102.27Z"/><path class="cls-1" d="M97,183.31V145.69H59.1a91.89,91.89,0,0,0,6.61,13.7C74.25,173.77,85.26,182.16,97,183.31Z"/><path class="cls-1" d="M102.53,102.27v37.85h39.85a131.75,131.75,0,0,0,6.09-37.85Z"/><path class="cls-1" d="M99.75,199.51a99.76,99.76,0,1,1,99.76-99.76A99.87,99.87,0,0,1,99.75,199.51ZM99.75,1a98.76,98.76,0,1,0,98.76,98.75A98.86,98.86,0,0,0,99.75,1Z"/><path class="cls-2" d="M140.33,34.44A13.18,13.18,0,0,1,150.08,30c4.25-.06,5.5,1.78,7.83,1.78s4.87-3.78,8.7-3.78c5,0,6,4.61,8,4.36S178.09,29,182,29.07s7.57,5.37,7.57,5.37Z"/><path class="cls-3" d="M9.93,34.44s4.87-4.23,9.87-4.29S25.18,32,28.43,32.3,33.61,27,39.61,26.83,47.43,32.72,51.8,33s7.07-.73,12-.73a23.68,23.68,0,0,1,9.3,2.2Z"/><ellipse class="cls-4" cx="101.02" cy="250.81" rx="80.3" ry="12.77"/><path class="cls-5" d="M121.66,141.37s7.57,10.28,8.63,11.35a.37.37,0,0,0,.48,0h0a.37.37,0,0,0,.12-.45l-1.36-3,.17-.13,2.55,3.94a.37.37,0,0,0,.35.16h0a.36.36,0,0,0,.26-.53l-1.65-3,1.89,3.24a.49.49,0,0,0,.75.11h0a.47.47,0,0,0,.11-.57l-2.2-4.41a.33.33,0,0,1,.09-.41h0a.33.33,0,0,1,.46.05l2.76,3.35a.43.43,0,0,0,.65,0h0a.45.45,0,0,0,.06-.51c-.67-1.2-3.36-5.94-4.39-6.9l0-.76a5.2,5.2,0,0,0,2.36.34,3.2,3.2,0,0,0,1.41-.65.42.42,0,0,0,.06-.61h0a.44.44,0,0,0-.32-.15,5.33,5.33,0,0,1-1.57-.15,9.69,9.69,0,0,0-2.94-1.21,21.76,21.76,0,0,0-3.46.28l-2.13-1.84Z"/><path class="cls-6" d="M90.58,243.63s.78,4.39,1.14,4.66a4.37,4.37,0,0,0,1.72.55,2.77,2.77,0,0,0,1-.34A4.94,4.94,0,0,0,95.81,250c2,1.35,7,2.64,7.62,2.7a2.36,2.36,0,0,0,2-.52c.33-.31.16-.62-.12-.89S97.89,245,97.89,245l-1-3.38Z"/><path class="cls-6" d="M67.15,242.46s-.1,4.31-.23,4.87a4.48,4.48,0,0,1-2.25.93,3.64,3.64,0,0,1-1.18-.47,16.27,16.27,0,0,0-2.23,1.62,10.77,10.77,0,0,1-2,2,11.57,11.57,0,0,1-4.69,1.75,5.58,5.58,0,0,1-3.11-.5.84.84,0,0,1,.11-1.25l9.09-7.72Z"/><path class="cls-7" d="M52.66,130.67c-12.74,3-5.74,67.6,3.6,69.1,4.31.69,9.35-16.44,10.16-33.07C67.37,147.38,63.09,128.24,52.66,130.67Z"/><path class="cls-7" d="M59.57,244.61l7.89.57c.44-4.48,3.34-19.49,2.4-33-.69-9.75-4.31-22.58-7.44-26.62-5.39-7-10.89,2.21-10.81,6.85C51.89,209.78,59.2,243.16,59.57,244.61Z"/><path class="cls-7" d="M63.22,142c0,6.25,8.6,54,19.1,61.32s7.67-40.74,0-60.22S63.28,130.9,63.22,142Z"/><path class="cls-7" d="M90.11,246l7.78-1c-.32-6.42-.83-18.51-2-28.06-1.28-10.82-6-30.21-14.1-27.93-8.77,2.46-2.5,23-1,30C81.92,224.09,87.29,238.82,90.11,246Z"/><path class="cls-8" d="M55.42,142.82l-1,.07c0,.51.72,11.76-8.66,14.87l0,1C56.22,155.55,55.43,143,55.42,142.82Z"/><path class="cls-8" d="M86.34,157.92c-9.93-2.87-9.22-14.51-9.19-15l-1-.07c0,.13-.84,13.35,10.39,16.19Z"/><path class="cls-9" d="M90.25,84.21C82.66,78,62.92,74.73,55,80.51,50.3,84,44.66,143.88,44.66,143.88l40.11,7S91.81,85.5,90.25,84.21Z"/><path class="cls-10" d="M62.16,79c-9-5.17-37.24,33-30.07,41S71.16,84.17,62.16,79Z"/><path class="cls-11" d="M83.6,83c-8.22,6.33,14.68,42.35,24.82,38.81C117.26,118.73,91.83,76.67,83.6,83Z"/><path class="cls-11" d="M108.2,109.89c-4.84-3-11.73,1.49-8.19,8.62S123,143.63,123,143.63l4.24-3.15S113.33,113.11,108.2,109.89Z"/><path class="cls-12" d="M86.33,56.75c3.1-.53,3.94,3.72,2.24,5.26-1.5,1.36-6.55,2.21-6.58-.35S83.24,57.28,86.33,56.75Z"/><path class="cls-5" d="M71.93,77.59c13.24,1.49,10.55,5.53,1.3,5.49C65.37,83.06,58.6,76.08,71.93,77.59Z"/><path class="cls-5" d="M78,56.12c3.35-.15,8,1.23,9.37,3.75a7.06,7.06,0,0,1,.38,5.36c-.15.47-.74,1.64-.74,1.64a4.32,4.32,0,0,1-.32,3.44l-.85,3.36s-.61,2.9-2.58,2.71c-.45,0-2.2.59-3.82-.17L78,82.78,67.37,80.3l3-11.4A38.79,38.79,0,0,1,69,63.48C69,62.2,70.85,56.45,78,56.12Z"/><path class="cls-12" d="M76.78,67.52s2.22,2.59,4.27,3.16c4.09-1.83,5.46.44,5.46.44s.18,4.63-1.81,5.87-9.14-1.09-9.41-4.7C75.19,70.89,76.78,67.52,76.78,67.52Z"/><path class="cls-12" d="M85.24,57.91a1.73,1.73,0,0,0-.1-2.36c-1-1.24-2.34-.61-3.68-.8s-1.38-1.45-3.07-1.5-1.94,1.18-3,1.41-3.62-.72-5.57,1.73-.51,5.09-1,6.46c-.79,2.39-.23,5.52,1.45,6.6,0,0,2.72-4.61,4.5-6.16A26.21,26.21,0,0,1,85.24,57.91Z"/><path class="cls-5" d="M76.52,66.16c3.17-1,1.48-6.88-1.67-6.15S73.35,67.15,76.52,66.16Z"/><path class="cls-13" d="M74.32,132.7,69,131.27a1.13,1.13,0,0,1-.78-1.38l3.82-13.6a1.11,1.11,0,0,1,1.36-.77L78.72,117a1.11,1.11,0,0,1,.78,1.38l-3.82,13.59A1.1,1.1,0,0,1,74.32,132.7Z"/><path class="cls-5" d="M60.06,121.62s4.46,1.49,5.46,1,2.41-1.78,2.85-1.77a6.07,6.07,0,0,0,2.71-1.07s-1,3.11-.89,3.27a13.29,13.29,0,0,0,2.2,1c1,.49,4.57,1.23,5.19,1.56a.8.8,0,0,1-.33,1.46,40.83,40.83,0,0,1-5.08-.86A47.94,47.94,0,0,1,77,127c.16.1.18,1.34-.68,1.4a19.19,19.19,0,0,1-4.46-.91s3.94.52,4.47.66c.71.19.16,1.47-.31,1.5a44.8,44.8,0,0,1-4.49-.65s4.29.36,4.49.65a1,1,0,0,1-.79,1.32,48.87,48.87,0,0,1-7.85-1c-1.84-.49-6.85-2.19-8.29-2.4Z"/><path class="cls-14" d="M35.27,109.61c-5.62,1-5.78,10.14-1.09,12.14,7.32,3.13,28,8.2,28,8.2l1.58-7.4S41.72,108.49,35.27,109.61Z"/><rect class="cls-15" x="122.73" y="167.3" width="32.01" height="4.16" rx="2.06" ry="2.06"/><rect class="cls-15" x="153.25" y="169.21" width="1" height="83.85" transform="translate(-18.58 14.87) rotate(-5.22)"/><rect class="cls-15" x="83.75" y="212.6" width="79.94" height="1" transform="translate(-100.24 315.87) rotate(-84.51)"/><rect class="cls-15" x="123.34" y="210.17" width="30.78" height="1"/><path class="cls-16" d="M127,202.63l-4.37,3.12c0,1.24.55,7.93.59,8.85.06,1.27-1,3.31-1.11,4.49s.89,1.17.89,1.17c1.18-.3,4.39-3.93,4.62-4.52s2.38-4.59,2.38-4.59a9.5,9.5,0,0,0,1.17-2.45c0-1-2.12-3.47-3.33-4.9A4.49,4.49,0,0,1,127,202.63Z"/><path class="cls-16" d="M122.15,189.17a19.78,19.78,0,0,0-5.75-6.24,1.56,1.56,0,0,0-1.83,1c-.43,1.28-.21,7.56-.17,7.54-.17,1.23-.36,3.46-.43,4.37-.09,1.27-1.41,3.17-1.62,4.34s.75,1.26.75,1.26c1.21-.16,4.81-3.4,5.11-4s2.89-4.29,2.89-4.29,1.41-1.68,1.44-2.3A5.28,5.28,0,0,0,122.15,189.17Z"/><path class="cls-17" d="M132.28,106c-8.07,10.26-19.58,35.16-14.48,38.81,3.42,2.45,17.59-16.47,21.06-30.28C141.71,103.16,136.62,100.46,132.28,106Z"/><path class="cls-17" d="M111.92,154.13s19.08-16.5,15.86-23.86c-2.22-5.08-10.54,5.2-13.5,9.66-2.27,3.41-6.42,13.87-6.42,13.87Z"/><path class="cls-12" d="M133.64,152.33c-6-1.15-43.11-7.45-43.81,2.36s37.82,15.08,45.85,12S143.47,154.21,133.64,152.33Z"/><path class="cls-12" d="M89.89,155.82c1.37,4.43,23,31.89,23,31.89l4.57-3.21s-3.24-18.78-10.37-27.27C98.68,147.24,88.92,152.72,89.89,155.82Z"/><path class="cls-18" d="M97,171.63c3.42,8.92,50.55,1,57.16-4.33,7.64-6.15.28-17.43-7.33-16.53C125.36,153.3,93.63,163,97,171.63Z"/><path class="cls-5" d="M122.94,205.5c-1.92-2.67-21.88-29.23-23.29-31.84-.94-1.73-1.08-3.16-.42-4.26a3.76,3.76,0,0,1,3-1.72h.14c4.33.31,9,3.51,12.21,8.36,3.72,5.64,11.91,26.57,12,26.85Z"/><path class="cls-16" d="M155.29,106.8c-3.58-5.54-5.82-8.43-12.87-8-6.77.46-10.46,6.29-11.74,13.05-1.53,8-4.17,40.14-4.17,40.14s9.58,10.1,34.46,7.45C161,159.49,157.81,110.7,155.29,106.8Z"/><path class="cls-18" d="M136.93,103.93c-.5,17.33-4,56.83-4,56.83l10.6,1.38s1-39.89,1.56-58.94Z"/><path class="cls-19" d="M131.52,76.21s-4.47-.83-5.54.78c-.76,1.14,0,2.65.12,3.18s-1.73,1.51-1.58,2.9,1.5,2.17,1.59,2.88-.38,3.54,4.84,3.4Z"/><polygon class="cls-5" points="144.51 101.37 141.84 87.74 135.32 90.28 138.13 104.94 144.51 101.37"/><path class="cls-5" d="M141.73,94.41a9.21,9.21,0,0,0,1.48-3.83s2-2.17,1-6.36-4-7.07-9.08-6.35-6.94,3.2-7.24,5.28-.42,3.39-.17,4.11c.35,1,1.41,1.72,1.47,2.27s.18,3.18.73,4.13,2.36,2.93,2.59,3.67a1.46,1.46,0,0,0,1.59,1.12C135,98.42,140.36,96.07,141.73,94.41Z"/><path class="cls-20" d="M129.58,83.34c1.94.55,3.8-1.21,5-.82s.16,1.85,1.27,2.32,2.46-.3,3.14.4.5,2.62,1.39,4c.7,1.1,1.53,1.18,2,2.25.13.29,1.55,7.07,1.55,7.07s4.91-1,4.51-4.4c-.37-3-1.92-3.08-1.76-4.14s2.25-2,1.88-4-2.42-3.12-2.51-4.15.15-4.79-2.36-6.12c-2.08-1.1-4.13-.17-5.23-.24s-2.2-1.38-4.85-1.22a6.23,6.23,0,0,0-5.36,4.45C127.62,80.67,127.76,82.82,129.58,83.34Z"/><path class="cls-5" d="M141.64,99.6c6.73,0,2.12,9.87-1.34,10C136.13,109.83,134.91,99.6,141.64,99.6Z"/><path class="cls-16" d="M149,101.91c7-4.22,19.72,37.07,10.8,38.86C152.11,142.31,141.82,106.21,149,101.91Z"/><path class="cls-21" d="M129.68,159.49H95.34a2.91,2.91,0,0,1-2.61-1.93l-7.45-23.69a1.39,1.39,0,0,1,1.39-1.93H121a2.92,2.92,0,0,1,2.61,1.93l7.45,23.69A1.39,1.39,0,0,1,129.68,159.49Z"/><path class="cls-5" d="M137.24,155.8s-9.53,6.69-10.75,7.3a.34.34,0,0,1-.42-.11h0a.35.35,0,0,1,0-.43l2.06-2.21-.11-.16-3.35,2.66a.32.32,0,0,1-.35,0h0a.33.33,0,0,1-.07-.53l2.3-2.12L124,162.48a.44.44,0,0,1-.67-.12h0a.44.44,0,0,1,.08-.52l3.18-3.18a.29.29,0,0,0,0-.37h0a.29.29,0,0,0-.41-.09l-3.36,2.09a.38.38,0,0,1-.56-.17h0a.4.4,0,0,1,.1-.46,72.09,72.09,0,0,1,7.37-5.63l-.55-2.45a22.46,22.46,0,0,1,3.68,2.18l2.38-1Z"/><path class="cls-16" d="M162.24,138.21c-2.24,8-26,20.21-26,20.21l-3.68-4.91s18.1-18.88,22.6-21.31C160.11,129.51,163.39,134.09,162.24,138.21Z"/><path class="cls-18" d="M124.14,194.21c-2.43-7-4.94-14.81-7.88-19.27-3.27-4.95-8.45-8.88-13.74-9.25-3-.21-7.87,2.95-4.63,8.92,1.59,2.93,12.29,16,18.76,24.4Z"/><path class="cls-22" d="M144.92,193.86c2.82-1.23,8.09,2.55,11.83,8.15,4.67,7,7.32,16.48,4,18.12-3.47,1.75-8.83-3.52-13-9C142.74,204.64,138.58,196.63,144.92,193.86Z"/><path class="cls-23" d="M145.57,197.19s2.1,2.22,4.88,5.85c.71.9,1.43,1.91,2.21,3s1.55,2.21,2.34,3.4,1.61,2.43,2.37,3.72c.39.65.78,1.3,1.18,2l1.12,2c.77,1.33,1.46,2.69,2.15,4s1.3,2.69,1.91,4,1.13,2.59,1.64,3.81c.25.61.5,1.2.73,1.77s.41,1.15.61,1.69c.38,1.09.76,2.08,1,3s.5,1.67.7,2.32l.61,2-1.66.43s-.2-.73-.53-2c-.17-.64-.38-1.41-.61-2.3s-.59-1.87-.93-2.95c-.17-.54-.35-1.11-.54-1.69s-.43-1.17-.66-1.78c-.46-1.21-.91-2.51-1.48-3.81s-1.1-2.67-1.76-4-1.27-2.73-2-4.07c-.34-.68-.69-1.35-1-2l-1.1-2c-.71-1.32-1.5-2.56-2.23-3.79s-1.49-2.37-2.21-3.46-1.42-2.12-2.09-3C147.6,199.48,145.57,197.19,145.57,197.19Z"/><polygon class="cls-23" points="153.15 199.2 153 206.44 152.42 206.41 153.15 199.2"/><polygon class="cls-23" points="156.75 203.37 156.43 211.75 155.86 211.71 156.75 203.37"/><polygon class="cls-23" points="143.53 204.64 152 205.09 151.96 205.66 143.53 204.64"/><path class="cls-23" d="M147.91,209.21s1.88.07,3.76.27l1.38.17,1.2.21c.18,0,.34.08.48.11l.37.09.32.08-.19.54-.3-.1-.34-.11c-.14,0-.28-.1-.45-.14L153,210l-1.35-.28C149.78,209.42,147.91,209.21,147.91,209.21Z"/><path class="cls-24" d="M161.59,197.82c2.53-.89,3.13,5.54,1.59,5.38S159.06,198.71,161.59,197.82Z"/><path class="cls-25" d="M149,224.64c.67-1,4.25-.93,3.68.58S148.3,225.64,149,224.64Z"/><path class="cls-26" d="M179.55,190.44c6.25,2.32,1.62,10.78-2.11,18.09-2.81,5.49-6.17,10.81-7.51,10.29C163.7,216.39,170.52,187.09,179.55,190.44Z"/><path class="cls-27" d="M177.44,197.59s-.28.55-.72,1.55-1.06,2.42-1.75,4.15-1.43,3.77-2.17,6c-.37,1.1-.7,2.25-1.07,3.42s-.68,2.36-1,3.56-.62,2.4-.84,3.6-.5,2.36-.65,3.51-.38,2.24-.47,3.3c-.06.52-.11,1-.17,1.53,0,.25,0,.49-.08.73s0,.47,0,.7c0,.92-.09,1.76-.13,2.51s0,1.4,0,1.93c0,1.07,0,1.68,0,1.68l-1.72,0s0-.63.06-1.73c0-.56,0-1.23.07-2s.16-1.63.25-2.57l.07-.72c0-.24.08-.49.11-.74q.12-.75.24-1.56c.14-1.07.39-2.18.62-3.33s.53-2.33.82-3.52.66-2.39,1-3.6.76-2.38,1.13-3.55.81-2.3,1.23-3.38c.83-2.19,1.67-4.2,2.44-5.91s1.43-3.1,1.92-4.07S177.44,197.59,177.44,197.59Z"/><polygon class="cls-27" points="179.16 202.7 173.71 206.7 173.39 206.22 179.16 202.7"/><polygon class="cls-27" points="172.63 197.03 174.98 203.48 174.43 203.65 172.63 197.03"/><polygon class="cls-27" points="176.67 209.47 172.03 211.17 171.86 210.62 176.67 209.47"/><polygon class="cls-27" points="169.93 203.48 172.61 209.62 172.08 209.83 169.93 203.48"/><path class="cls-28" d="M175.07,223.47c-1.47-1.71,4.51-8.34,8.87-11.72s8.24-3.28,9.66-1.92c2.76,2.64-.51,7.34-6.79,10.64C181.83,223.09,176.5,225.13,175.07,223.47Z"/><path class="cls-29" d="M191.35,211.84s-.43.24-1.14.71-1.73,1.13-2.93,2-2.57,1.83-4,2.94c-.72.56-1.47,1.13-2.21,1.74l-1.11.91-1.1.95c-.74.62-1.45,1.29-2.15,1.93s-1.35,1.32-2,1.95-1.21,1.3-1.77,1.9-1,1.23-1.49,1.78-.8,1.1-1.14,1.57a10.88,10.88,0,0,0-.8,1.25l-.65,1.11-2.16.38s.93-1.63,1.42-2.37a11.76,11.76,0,0,1,.93-1.29c.38-.47.78-1,1.29-1.58s1-1.15,1.63-1.75,1.24-1.23,1.92-1.85,1.39-1.26,2.14-1.86,1.5-1.25,2.28-1.83l1.17-.9,1.17-.85c.77-.58,1.56-1.11,2.31-1.63,1.51-1,2.94-2,4.19-2.73s2.29-1.39,3-1.81S191.35,211.84,191.35,211.84Z"/><polygon class="cls-29" points="189.94 216.86 183.67 217.12 183.67 216.54 189.94 216.86"/><polygon class="cls-29" points="184.98 218.36 181.37 218.82 181.34 218.25 184.98 218.36"/><polygon class="cls-29" points="185.38 210.99 183.38 216.94 183.93 217.09 185.38 210.99"/><polygon class="cls-29" points="182.56 215.33 181.1 218.67 181.64 218.85 182.56 215.33"/><path class="cls-30" d="M169.71,253.18h-4.66a7.73,7.73,0,0,1-7.73-7.73v-16h20.12v16A7.73,7.73,0,0,1,169.71,253.18Z"/><path class="cls-31" d="M176.46,253.18H158.3a3.8,3.8,0,0,1-3.79-3.8v0h25.74v0A3.8,3.8,0,0,1,176.46,253.18Z"/></g></g></svg>