<?xml version="1.0" encoding="utf-8"?>
<!-- Generator: Adobe Illustrator 22.1.0, SVG Export Plug-In . SVG Version: 6.00 Build 0)  -->
<svg version="1.1" id="Layer_1" xmlns="http://www.w3.org/2000/svg" xmlns:xlink="http://www.w3.org/1999/xlink" x="0px" y="0px"
	 viewBox="0 0 610 610" style="enable-background:new 0 0 610 610;" xml:space="preserve">
<style type="text/css">
	.st0{fill:url(#SVGID_1_);}
	.st1{fill:url(#SVGID_2_);}
	.st2{fill:url(#SVGID_3_);}
	.st3{fill:url(#SVGID_4_);}
	.st4{fill:url(#SVGID_5_);}
	.st5{fill:url(#SVGID_6_);}
	.st6{fill:url(#SVGID_7_);}
	.st7{fill:url(#SVGID_8_);}
	.st8{fill:url(#SVGID_9_);}
	.st9{fill:url(#SVGID_10_);}
	.st10{fill:url(#SVGID_11_);}
</style>
<linearGradient id="SVGID_1_" gradientUnits="userSpaceOnUse" x1="50.6451" y1="305" x2="230.3479" y2="305">
	<stop  offset="1.025641e-02" style="stop-color:#092845"/>
	<stop  offset="1" style="stop-color:#0046BB"/>
</linearGradient>
<path class="st0" d="M132.3,386.3v8.6h16.3v-8.6c38.6-3.9,69.2-34.5,73.1-73.1h8.6v-16.3h-8.6c-3.9-38.6-34.5-69.2-73.1-73.1v-8.6
	h-16.3v8.6c-38.6,3.9-69.2,34.5-73.1,73.1h-8.6v16.3h8.6C63.2,351.8,93.7,382.3,132.3,386.3z M75.7,296.8
	c3.8-29.6,27.1-52.8,56.6-56.6v7.6h16.3v-7.6c29.6,3.8,52.8,27.1,56.6,56.6h-7.6v16.3h7.6c-3.8,29.6-27.1,52.8-56.6,56.6v-7.6h-16.3
	v7.6c-29.6-3.8-52.8-27.1-56.6-56.6h7.6v-16.3H75.7z"/>
<linearGradient id="SVGID_2_" gradientUnits="userSpaceOnUse" x1="91.4866" y1="305" x2="189.5063" y2="305">
	<stop  offset="1.025641e-02" style="stop-color:#092845"/>
	<stop  offset="1" style="stop-color:#0046BB"/>
</linearGradient>
<path class="st1" d="M140.5,354c27.1,0,49-21.9,49-49s-21.9-49-49-49s-49,21.9-49,49C91.5,332.1,113.4,354,140.5,354z M140.5,272.3
	c18,0,32.7,14.6,32.7,32.7s-14.6,32.7-32.7,32.7S107.8,323,107.8,305S122.5,272.3,140.5,272.3z"/>
<linearGradient id="SVGID_3_" gradientUnits="userSpaceOnUse" x1="115.9915" y1="305" x2="165.0014" y2="305">
	<stop  offset="1.025641e-02" style="stop-color:#092845"/>
	<stop  offset="1" style="stop-color:#0046BB"/>
</linearGradient>
<path class="st2" d="M140.5,329.5c13.5,0,24.5-11,24.5-24.5s-11-24.5-24.5-24.5c-13.5,0-24.5,11-24.5,24.5S127,329.5,140.5,329.5z
	 M140.5,296.8c4.5,0,8.2,3.7,8.2,8.2s-3.7,8.2-8.2,8.2c-4.5,0-8.2-3.7-8.2-8.2S136,296.8,140.5,296.8z"/>
<linearGradient id="SVGID_4_" gradientUnits="userSpaceOnUse" x1="426.3873" y1="149.8021" x2="442.7239" y2="149.8021">
	<stop  offset="1.025641e-02" style="stop-color:#092845"/>
	<stop  offset="1" style="stop-color:#0046BB"/>
</linearGradient>
<path class="st3" d="M426.4,141.6h16.3V158h-16.3V141.6z"/>
<linearGradient id="SVGID_5_" gradientUnits="userSpaceOnUse" x1="393.7141" y1="149.8021" x2="410.0507" y2="149.8021">
	<stop  offset="1.025641e-02" style="stop-color:#092845"/>
	<stop  offset="1" style="stop-color:#0046BB"/>
</linearGradient>
<path class="st4" d="M393.7,141.6h16.3V158h-16.3V141.6z"/>
<linearGradient id="SVGID_6_" gradientUnits="userSpaceOnUse" x1="361.0408" y1="149.8021" x2="377.3774" y2="149.8021">
	<stop  offset="1.025641e-02" style="stop-color:#092845"/>
	<stop  offset="1" style="stop-color:#0046BB"/>
</linearGradient>
<path class="st5" d="M361,141.6h16.3V158H361V141.6z"/>
<linearGradient id="SVGID_7_" gradientUnits="userSpaceOnUse" x1="165.0014" y1="149.8021" x2="181.338" y2="149.8021">
	<stop  offset="1.025641e-02" style="stop-color:#092845"/>
	<stop  offset="1" style="stop-color:#0046BB"/>
</linearGradient>
<path class="st6" d="M165,141.6h16.3V158H165V141.6z"/>
<linearGradient id="SVGID_8_" gradientUnits="userSpaceOnUse" x1="279.3577" y1="517.376" x2="328.3676" y2="517.376">
	<stop  offset="1.025641e-02" style="stop-color:#092845"/>
	<stop  offset="1" style="stop-color:#0046BB"/>
</linearGradient>
<path class="st7" d="M320.2,509.2h-32.7c-4.5,0-8.2,3.7-8.2,8.2s3.7,8.2,8.2,8.2h32.7c4.5,0,8.2-3.7,8.2-8.2
	S324.7,509.2,320.2,509.2z"/>
<linearGradient id="SVGID_9_" gradientUnits="userSpaceOnUse" x1="336.5359" y1="321.3366" x2="467.2289" y2="321.3366">
	<stop  offset="1.025641e-02" style="stop-color:#092845"/>
	<stop  offset="1" style="stop-color:#0046BB"/>
</linearGradient>
<path class="st8" d="M401.9,256c-36.1,0-65.3,29.3-65.3,65.3s29.3,65.3,65.3,65.3s65.3-29.3,65.3-65.3
	C467.2,285.3,438,256,401.9,256z M401.9,370.3c-27.1,0-49-21.9-49-49c0-27.1,21.9-49,49-49s49,21.9,49,49
	C450.9,348.4,428.9,370.3,401.9,370.3z"/>
<linearGradient id="SVGID_10_" gradientUnits="userSpaceOnUse" x1="369.2091" y1="321.3366" x2="434.5556" y2="321.3366">
	<stop  offset="1.025641e-02" style="stop-color:#092845"/>
	<stop  offset="1" style="stop-color:#0046BB"/>
</linearGradient>
<path class="st9" d="M401.9,288.7c-18,0-32.7,14.6-32.7,32.7s14.6,32.7,32.7,32.7s32.7-14.6,32.7-32.7S419.9,288.7,401.9,288.7z
	 M401.9,337.7c-9,0-16.3-7.3-16.3-16.3c0-9,7.3-16.3,16.3-16.3s16.3,7.3,16.3,16.3C418.2,330.4,410.9,337.7,401.9,337.7z"/>
<linearGradient id="SVGID_11_" gradientUnits="userSpaceOnUse" x1="132.3282" y1="305" x2="548.912" y2="305">
	<stop  offset="1.025641e-02" style="stop-color:#092845"/>
	<stop  offset="1" style="stop-color:#0046BB"/>
</linearGradient>
<path class="st10" d="M548.9,313.2h-16.8c-2.5-40.2-23.5-77.1-56.8-99.8V100.8c0-22.5-18.3-40.8-40.8-40.8H173.2
	c-22.5,0-40.8,18.3-40.8,40.8V207h16.3v-81.7h310.4V204c-15.3-7.5-32-11.9-49-12.9v-16.8h-16.3v16.8
	c-65.6,4.2-117.9,56.5-122.1,122.1h-16.8v16.3h16.8c4.2,65.6,56.5,117.9,122.1,122.1v16.8h16.3v-16.8c17-1,33.7-5.4,49-12.9v46
	H148.7V403h-16.3v106.2c0,22.5,18.3,40.8,40.8,40.8h261.4c22.5,0,40.8-18.3,40.8-40.8v-79.9c33.3-22.7,54.3-59.6,56.8-99.8h16.8
	V313.2z M148.7,109v-8.2c0-13.5,11-24.5,24.5-24.5h261.4c13.5,0,24.5,11,24.5,24.5v8.2H148.7z M434.6,533.7H173.2
	c-13.5,0-24.5-11-24.5-24.5V501h310.4v8.2C459.1,522.7,448.1,533.7,434.6,533.7z M410.1,435.3v-15.9h-16.3v15.9
	c-56.6-4.1-101.7-49.2-105.8-105.8h15.9v-16.3h-15.9c4.1-56.6,49.2-101.7,105.8-105.8v15.9h16.3v-15.9
	c56.6,4.1,101.7,49.2,105.8,105.8h-15.9v16.3h15.9C511.7,386.1,466.7,431.2,410.1,435.3z"/>
</svg>
