<?xml version="1.0" encoding="utf-8"?>
<!-- Generator: Adobe Illustrator 22.1.0, SVG Export Plug-In . SVG Version: 6.00 Build 0)  -->
<svg version="1.1" id="Capa_1" xmlns="http://www.w3.org/2000/svg" xmlns:xlink="http://www.w3.org/1999/xlink" x="0px" y="0px"
	 viewBox="0 0 512 512" style="enable-background:new 0 0 512 512;" xml:space="preserve">
<style type="text/css">
	.st0{fill:url(#SVGID_1_);}
	.st1{fill:url(#SVGID_2_);}
	.st2{fill:url(#SVGID_3_);}
</style>
<g>
	<g>
		<linearGradient id="SVGID_1_" gradientUnits="userSpaceOnUse" x1="144.292" y1="256.9985" x2="367.712" y2="256.9985">
			<stop  offset="1.025641e-02" style="stop-color:#092845"/>
			<stop  offset="1" style="stop-color:#0046BB"/>
		</linearGradient>
		<path class="st0" d="M344.2,277.8l-43.6-19.4c-3.1-1.4-5.1-4.4-5.1-7.8v-12c14.6-11.7,24-29.6,24-49.8V172c4.8-2.7,8-7.8,8-13.6
			v-1.6c0-35.1-28.5-63.6-63.6-63.6h-16c-35.1,0-63.6,28.5-63.6,63.6v14.8c0,5.1,2.2,9.7,6,12.6c0.6,0.5,1.3,0.9,2,1.3v3.3
			c0,20.1,9.4,38.1,24,49.8v12c0,3.4-2,6.4-5.1,7.8l-43.6,19.4c-14.3,6.3-23.5,20.5-23.5,36.2v99.4c0,4.1,3.4,7.5,7.5,7.5
			s7.5-3.4,7.5-7.5v-99.4c0-0.9,0.1-1.7,0.2-2.6l20.1,20.1c3.1,3.1,4.8,7.3,4.8,11.7v70.2c0,4.1,3.4,7.5,7.5,7.5s7.5-3.4,7.5-7.5
			v-70.2c0-8.4-3.3-16.3-9.2-22.3l-23.9-23.9c2.2-2.2,4.7-4.1,7.7-5.4l42.8-19l31.8,31.8v109.1c0,4.1,3.4,7.5,7.5,7.5
			c4.1,0,7.5-3.4,7.5-7.5V304.2l31.8-31.8l42.8,19c2.9,1.3,5.5,3.2,7.7,5.4l-23.9,23.9c-6,6-9.2,13.9-9.2,22.3v70.2
			c0,4.1,3.4,7.5,7.5,7.5s7.5-3.4,7.5-7.5v-70.2c0-4.4,1.7-8.6,4.8-11.7l20.1-20.1c0.1,0.9,0.2,1.7,0.2,2.6v99.4
			c0,4.1,3.4,7.5,7.5,7.5s7.5-3.4,7.5-7.5v-99.4C367.7,298.3,358.5,284.1,344.2,277.8z M256,290.5l-27.9-27.9
			c2.1-3.6,3.3-7.7,3.3-12v-3.1c7.6,3.2,15.9,4.9,24.6,4.9s17-1.8,24.6-4.9v3.1c0,4.3,1.2,8.4,3.3,12L256,290.5z M256,237.5
			c-26.8,0-48.6-21.8-48.6-48.6v-3.4c4.7-1.9,9.2-4.8,13.6-8.8c3-2.8,3.2-7.6,0.4-10.6c-2.8-3-7.6-3.2-10.6-0.4
			c-3.8,3.5-7.5,5.7-11.1,6.6c-0.1,0-0.2,0-0.2,0c-0.1-0.1-0.1-0.3-0.1-0.7v-14.8c0-26.8,21.8-48.6,48.6-48.6h16
			c26.8,0,48.6,21.8,48.6,48.6v1.6c0,0.2-0.1,0.5-0.3,0.5c-44.9,8.9-67.4-7.8-75-15.4c-2.9-2.9-7.7-2.9-10.6,0
			c-2.9,2.9-2.9,7.7,0,10.6c23.3,23.3,57.3,23.7,78,21.2v13.6C304.6,215.7,282.8,237.5,256,237.5z"/>
	</g>
</g>
<g>
	<g>
		<linearGradient id="SVGID_2_" gradientUnits="userSpaceOnUse" x1="0" y1="277.04" x2="135.242" y2="277.04">
			<stop  offset="1.025641e-02" style="stop-color:#092845"/>
			<stop  offset="1" style="stop-color:#0046BB"/>
		</linearGradient>
		<path class="st1" d="M135.2,237v-16c0-19.6-10.2-36.8-25.5-46.7c0.9-3,1.4-6.2,1.4-9.4c0-17.4-14.2-31.5-31.5-31.5
			s-31.5,14.2-31.5,31.5c0,3.2,0.5,6.4,1.4,9.4C34.2,184.1,24,201.4,24,220.9v16c0,18.9,9.5,35.7,24,45.7v16.5
			c0,3.3-1.8,6.2-4.7,7.6l-25.9,13C6.7,325.2,0,336,0,348v65.3c0,4.1,3.4,7.5,7.5,7.5s7.5-3.4,7.5-7.5v-62.1l12.2,12.2
			c3.1,3.1,4.8,7.3,4.8,11.7v38.1c0,4.1,3.4,7.5,7.5,7.5s7.5-3.4,7.5-7.5v-38.1c0-8.4-3.3-16.3-9.2-22.3l-17-17
			c-0.1-0.1-0.2-0.2-0.3-0.2c1.1-0.9,2.3-1.8,3.6-2.4l25.9-13c1.3-0.7,2.6-1.5,3.7-2.3l18.3,18.3v77.1c0,4.1,3.4,7.5,7.5,7.5
			s7.5-3.4,7.5-7.5v-77.1l18.3-18.3c1.2,0.9,2.4,1.7,3.7,2.3l7.2,3.6c1.1,0.5,2.2,0.8,3.3,0.8c2.8,0,5.4-1.5,6.7-4.1
			c1.9-3.7,0.4-8.2-3.4-10.1l-7.2-3.6c-2.9-1.5-4.7-4.4-4.7-7.6v-16.5C125.7,272.7,135.2,255.9,135.2,237z M79.6,148.3
			c9.1,0,16.5,7.4,16.5,16.5c0,1-0.1,2-0.3,3c-5.2-1.6-10.6-2.4-16.3-2.4c-5.7,0-11.1,0.9-16.3,2.4c-0.2-1-0.3-1.9-0.3-2.9
			C63.1,155.7,70.5,148.3,79.6,148.3z M79.6,180.3c22.4,0,40.6,18.2,40.6,40.6v2.7c-31.2,9.6-49.8-14.2-50.6-15.2
			c-1.3-1.7-3.3-2.8-5.5-3c-2.2-0.2-4.3,0.6-5.8,2.2c-7.2,7.2-14.2,10.6-19.2,12.3C39.6,198,57.6,180.3,79.6,180.3z M79.6,322.5
			l-17.3-17.3c0.5-1.9,0.8-4,0.8-6V290c5.2,1.6,10.8,2.5,16.5,2.5s11.3-0.9,16.5-2.5v9.2c0,2.1,0.3,4.1,0.8,6L79.6,322.5z
			 M79.6,277.6C57.3,277.6,39,259.3,39,237v-1.6c6-1.4,14.8-4.6,24.1-12c3.3,3.1,8,6.9,13.9,10.1c7,3.8,16.8,7.4,28.7,7.4
			c4.5,0,9.3-0.5,14.5-1.7C119,260.5,101.3,277.6,79.6,277.6z"/>
	</g>
</g>
<g>
	<g>
		<linearGradient id="SVGID_3_" gradientUnits="userSpaceOnUse" x1="360.726" y1="285.0565" x2="511.999" y2="285.0565">
			<stop  offset="1.025641e-02" style="stop-color:#092845"/>
			<stop  offset="1" style="stop-color:#0046BB"/>
		</linearGradient>
		<path class="st2" d="M494.6,303.8l-42-21c-2.9-1.5-4.7-4.4-4.7-7.6v-10.6c9.8-8.7,16-21.4,16-35.6v-8.5c0.2,0,0.3,0,0.5,0
			c4.1,0,7.5-3.4,7.5-7.5v-16c0-26.2-21.3-47.6-47.6-47.6h-16c-26.2,0-47.6,21.3-47.6,47.6v16c0,4.1,3.4,7.5,7.5,7.5
			c0.1,0,0.2,0,0.5,0v8.5c0,14.1,6.2,26.9,16,35.6v10.6c0,3.3-1.8,6.2-4.7,7.6c-3.7,1.9-5.2,6.4-3.4,10.1c1.3,2.6,4,4.1,6.7,4.1
			c1.1,0,2.3-0.3,3.3-0.8c1.3-0.7,2.6-1.5,3.7-2.3l18.3,18.3v101.1c0,4.1,3.4,7.5,7.5,7.5s7.5-3.4,7.5-7.5V312.2l18.3-18.3
			c1.2,0.9,2.4,1.7,3.7,2.3l40.6,20.3l-12.3,12.3c-6,6-9.2,13.9-9.2,22.3v62.2c0,4.1,3.4,7.5,7.5,7.5s7.5-3.4,7.5-7.5v-62.2
			c0-4.4,1.7-8.6,4.8-11.7l11.7-11.7c0.4,1.4,0.5,2.8,0.5,4.2v81.3c0,4.1,3.4,7.5,7.5,7.5s7.5-3.4,7.5-7.5V332
			C512,320,505.3,309.1,494.6,303.8z M375.7,203.9v-7h0c0-18,14.6-32.6,32.6-32.6h16c18,0,32.6,14.6,32.6,32.6v8.3
			c-32.6-1.8-52.3-14.4-52.5-14.6c-1.3-0.8-2.7-1.3-4.2-1.3c-1.9,0-3.9,0.7-5.3,2.2C387.8,198.8,380.8,202.2,375.7,203.9z
			 M416.3,298.5L399,281.2c0.5-1.9,0.8-4,0.8-6v-1.6c5.2,1.9,10.7,3,16.5,3c5.8,0,11.4-1.1,16.5-3v1.6c0,2.1,0.3,4.1,0.8,6
			L416.3,298.5z M416.3,261.5c-18,0-32.6-14.6-32.6-32.6v-12.1l0,0c5.3-2.1,11.4-5.4,17.6-10.7c7.9,4.1,24.4,11.2,47.6,13.5v9.3
			C448.9,246.9,434.3,261.5,416.3,261.5z"/>
	</g>
</g>
</svg>
