<?xml version="1.0" encoding="utf-8"?>
<!-- Generator: Adobe Illustrator 22.1.0, SVG Export Plug-In . SVG Version: 6.00 Build 0)  -->
<svg version="1.1" id="Layer_1" xmlns="http://www.w3.org/2000/svg" xmlns:xlink="http://www.w3.org/1999/xlink" x="0px" y="0px"
	 viewBox="0 0 66 73" style="enable-background:new 0 0 66 73;" xml:space="preserve">
<style type="text/css">
	.st0{fill:none;stroke:#FF5015;stroke-width:2.2959;stroke-linecap:round;stroke-linejoin:round;}
	.st1{fill:none;stroke:#8BD4CE;stroke-width:2.2959;}
	.st2{fill:none;stroke:#0085E5;stroke-width:2.2959;stroke-linejoin:round;}
	.st3{fill:none;stroke:#F2F2F2;stroke-width:2.2959;stroke-linecap:round;stroke-linejoin:round;}
	.st4{fill:none;stroke:#0085E5;stroke-width:2.2959;}
</style>
<title>95221D10-F190-41A1-8087-330DCDF58624</title>
<desc>Created with sketchtool.</desc>
<g id="Page-1">
	<g id="_x33_75-iPhone-7-and-less" transform="translate(-20.000000, -3065.000000)">
		<g id="confetti1" transform="translate(21.258503, 3066.326531)">
			<polyline id="Path-11032" class="st0" points="0.1,16.1 3.7,19 1.3,22.9 4.9,25.8 2.5,29.7 			"/>
			<ellipse id="Oval-3653" class="st1" cx="4.3" cy="66.5" rx="3.1" ry="3.1"/>
			<path id="Rectangle-5855" class="st2" d="M43,6.8l2.6,2.6c0.5,0.5,0.5,1.3,0,1.7L43,13.8c-0.5,0.5-1.3,0.5-1.7,0l-2.6-2.6
				c-0.5-0.5-0.5-1.3,0-1.7l2.6-2.6C41.8,6.3,42.5,6.3,43,6.8z"/>
			<polyline id="Path-11032-Copy" class="st3" points="63.3,7.3 59.6,10.2 62.1,14.1 58.4,17 60.9,20.9 			"/>
			<ellipse id="Oval-3653-Copy" class="st4" cx="15.8" cy="3.1" rx="3.1" ry="3.1"/>
			<path id="Rectangle-5855-Copy" class="st2" d="M13.7,38.7l2.6,2.6c0.5,0.5,0.5,1.3,0,1.7l-2.6,2.6c-0.5,0.5-1.3,0.5-1.7,0L9.4,43
				c-0.5-0.5-0.5-1.3,0-1.7l2.6-2.6C12.5,38.2,13.2,38.2,13.7,38.7z"/>
		</g>
	</g>
</g>
</svg>
