<svg xmlns="http://www.w3.org/2000/svg" viewBox="0 0 101 101"><defs><style>.cls-1{fill:#ffd43f;}.cls-2{fill:#2974e2;}.cls-3{fill:#00897b;}.cls-4{fill:#092845;}.cls-5{fill:#fff;}.cls-6{fill:#424242;}</style></defs><title>Asset 1</title><g id="Layer_2" data-name="Layer 2"><g id="Layer_1-2" data-name="Layer 1"><rect class="cls-1" width="101" height="101" rx="14.67" ry="14.67"/><circle class="cls-2" cx="51.07" cy="48.62" r="41.49" transform="translate(-8.45 86.42) rotate(-76.01)"/><polygon class="cls-3" points="82.24 63.56 92.55 90.05 66.06 79.74 82.24 63.56"/><path class="cls-4" d="M92.55,48.62a41.28,41.28,0,0,0-4-17.76L84,26.35,51.07,35.74,18.13,26.35l3.27,3.27.18.18h0L23,31.17a16.46,16.46,0,0,0,.9,24.11L58.07,89.5A41.35,41.35,0,0,0,74.34,83l18.21,7.09L85.46,71.83A41.29,41.29,0,0,0,92.55,48.62Z"/><path class="cls-5" d="M84,26.35H18.13L23,31.17A16.47,16.47,0,1,0,46.24,54.46l4.83,4.83,4.82-4.83A16.47,16.47,0,0,0,79.18,31.17Z"/><path class="cls-6" d="M34.6,47.22a4.41,4.41,0,1,1,4.4-4.4A4.4,4.4,0,0,1,34.6,47.22Z"/><path class="cls-6" d="M67.53,47.22a4.41,4.41,0,1,1,4.41-4.4A4.4,4.4,0,0,1,67.53,47.22Z"/></g></g></svg>