<?xml version="1.0" encoding="utf-8"?>
<!-- Generator: Adobe Illustrator 22.1.0, SVG Export Plug-In . SVG Version: 6.00 Build 0)  -->
<svg version="1.1" id="Layer_1" xmlns="http://www.w3.org/2000/svg" xmlns:xlink="http://www.w3.org/1999/xlink" x="0px" y="0px"
	 viewBox="0 0 58 74" style="enable-background:new 0 0 58 74;" xml:space="preserve">
<style type="text/css">
	.st0{fill:none;stroke:#8BD4CE;stroke-width:2.2959;stroke-linecap:round;stroke-linejoin:round;}
	.st1{fill:none;stroke:#FFD43F;stroke-width:2.2959;}
	.st2{fill:none;stroke:#FF5015;stroke-width:2.2959;stroke-linejoin:round;}
	.st3{fill:none;stroke:#0094FF;stroke-width:2.2959;stroke-linecap:round;stroke-linejoin:round;}
	.st4{fill:none;stroke:#0094FF;stroke-width:2.2959;}
	.st5{fill:none;stroke:#0094FF;stroke-width:2.2959;stroke-linejoin:round;}
</style>
<title>442BB993-47CC-4C47-BCF5-4A96FAEA7A7E</title>
<desc>Created with sketchtool.</desc>
<g id="Page-1">
	<g id="_x33_75-iPhone-7-and-less" transform="translate(-304.000000, -3064.000000)">
		<g id="confetti2" transform="translate(305.272109, 3065.476190)">
			<polyline id="Path-11032-Copy-3" class="st0" points="55.2,30.7 51.6,27.8 54.1,23.9 50.4,21.1 52.9,17.2 			"/>
			<ellipse id="Oval-3653-Copy-3" class="st1" cx="44.4" cy="67.4" rx="3.1" ry="3"/>
			<path id="Rectangle-5855-Copy-3" class="st2" d="M19.7,11.1l-2.6,2.6c-0.5,0.5-0.5,1.3,0,1.7l2.6,2.6c0.5,0.5,1.3,0.5,1.7,0
				l2.6-2.6c0.5-0.5,0.5-1.3,0-1.7l-2.6-2.6C21,10.6,20.2,10.6,19.7,11.1z"/>
			<polyline id="Path-11032-Copy-6" class="st3" points="0,13.4 3.6,10.6 1.2,6.7 4.8,3.9 2.4,0 			"/>
			<ellipse id="Oval-3653-Copy-6" class="st4" cx="41.4" cy="3" rx="3.1" ry="3"/>
			<path id="Rectangle-5855-Copy-6" class="st5" d="M39.2,39.1l-2.6,2.6c-0.5,0.5-0.5,1.3,0,1.7l2.6,2.6c0.5,0.5,1.3,0.5,1.7,0
				l2.6-2.6c0.5-0.5,0.5-1.3,0-1.7L41,39.1C40.5,38.7,39.7,38.7,39.2,39.1z"/>
		</g>
	</g>
</g>
</svg>
