<?xml version="1.0" encoding="utf-8"?>
<!-- Generator: Adobe Illustrator 22.1.0, SVG Export Plug-In . SVG Version: 6.00 Build 0)  -->
<svg version="1.1" id="Capa_1" xmlns="http://www.w3.org/2000/svg" xmlns:xlink="http://www.w3.org/1999/xlink" x="0px" y="0px"
	 viewBox="0 0 512 512" style="enable-background:new 0 0 512 512;" xml:space="preserve">
<style type="text/css">
	.st0{fill:url(#SVGID_1_);}
	.st1{fill:url(#SVGID_2_);}
	.st2{fill:url(#SVGID_3_);}
	.st3{fill:url(#SVGID_4_);}
</style>
<g>
	<g>
		<linearGradient id="SVGID_1_" gradientUnits="userSpaceOnUse" x1="131.7861" y1="334.4879" x2="151.8599" y2="334.4879">
			<stop  offset="1.025641e-02" style="stop-color:#092845"/>
			<stop  offset="1" style="stop-color:#0046BB"/>
		</linearGradient>
		<path class="st0" d="M151.7,332.9l-0.1-0.4c-1-5.4-6.2-9.1-11.6-8.1c-5.4,1-9.1,6.2-8.1,11.6l0.1,0.4c0.9,4.8,5.1,8.3,9.8,8.3
			c0.6,0,1.2-0.1,1.8-0.2C149,343.6,152.7,338.4,151.7,332.9z"/>
	</g>
</g>
<g>
	<g>
		<linearGradient id="SVGID_2_" gradientUnits="userSpaceOnUse" x1="0.9994" y1="256.0011" x2="513.0006" y2="256.0011">
			<stop  offset="1.025641e-02" style="stop-color:#092845"/>
			<stop  offset="1" style="stop-color:#0046BB"/>
		</linearGradient>
		<path class="st1" d="M437.7,439l27.6-160.3l20.4,3.6c0.6,0.1,1.2,0.2,1.7,0.2c2,0,4-0.6,5.7-1.8c2.2-1.5,3.7-3.8,4.1-6.5l15-85.2
			c3.4-19.3-7.5-38.3-25.8-45.2l-17.7-6.6c-0.1,0-0.2-0.1-0.3-0.2c0,0,0,0,0,0c-0.3-0.2-0.4-0.6-0.4-1l0.9-5
			c3.4-1.4,6.7-3.1,9.8-5.3c10-7.2,16.6-18.2,18.7-30.3l1.6-8.8c0,0,0,0,0,0l0.7-4.2c2.2-12.4-0.4-25.3-7.7-35.5
			c-7.8-10.9-19.8-17.8-33.4-19.1c-9.4-0.9-19,1.3-27.1,6.1c-11.9,7-19.8,18.4-22.2,31.8l-0.9,5c0,0,0,0,0,0l-1.7,9.7
			c-2.9,16.3,3.2,32.1,14.8,42.4l-0.8,4.6c-0.2,0.9-0.9,1.6-1.9,1.6l-18.1-0.1c-19.6,0.2-36.3,14.3-39.7,33.6l-15,85.2
			c-1,5.4,2.7,10.6,8.1,11.6l20.5,3.6l-24.6,139.6c-16.7-4.5-33.7-7.8-50.9-9.8V331h9.1c1.7,0,3.3-0.3,4.8-1.1c4-2.1,6-6.4,5.3-10.5
			l-10.5-63h14.1c5.5,0,10-4.5,10-10v-84.3c0-9.7-3.5-18.7-9.4-25.7c0-0.3,0-0.6,0-0.9V66.4c0-35.9-28.5-65.8-64.4-66.4
			c-36.5-0.6-66.4,29-66.4,65.4v70.1c0,0.3,0,0.7,0.1,1c-5.9,7-9.3,16-9.3,25.6v84.3c0,5.5,4.5,10,10,10h14.1c0.2,0,0.3,0,0.5,0
			l-11.1,63c-0.7,3.9,1,7.9,4.4,10.2c1.7,1.1,3.7,1.6,5.7,1.6h9.1v61.5c-17.3,2-34.3,5.3-51.1,9.8l-5.1-29c-1-5.4-6.1-9.1-11.6-8.1
			c-5.4,1-9.1,6.1-8.1,11.6l5.5,31.3c-5.1,1.7-10.2,3.5-15.3,5.4l-25.5-144.6l15.8-2.8l5.2,29.4c0.9,4.9,5.1,8.3,9.8,8.3
			c0.6,0,1.1,0,1.7-0.1c5.5-0.9,9.1-6.5,8.1-12l-5.1-29l20.5-3.6c5.4-1,9.1-6.1,8.1-11.6l-15-85.2c-3.4-19.3-20.1-33.4-39.7-33.6
			l-18.3-0.2c-0.9,0-1.6-0.6-1.7-1.5l-0.8-4.4c11.5-10.3,17.6-26.1,14.8-42.4l-1.7-9.7c0,0,0,0,0,0l-0.7-4.2
			c-2.2-12.2-8.8-23.3-19-30.4c-10.1-7.1-22.3-9.8-34.4-7.7c-12.1,2.1-22.7,8.9-29.7,19c-7.1,10.2-9.6,22.9-7.4,35.1l0.7,4.2
			c0,0,0,0,0,0l1.7,9.7c2.9,16.3,14,29,28.4,34.8l0.9,5.1c0.1,0.5-0.2,1-0.7,1.2l-17.7,6.6C9.1,150.7-1.8,169.6,1.6,189l15,85.2
			c0.5,2.6,1.9,4.9,4.1,6.5c1.7,1.2,3.7,1.8,5.7,1.8c0.6,0,1.2,0,1.7-0.2l20.4-3.6L76.3,439c-26.3,15.4-50.5,34.1-72.4,56
			c-3.9,3.9-3.9,10.2,0,14.1c3.9,3.9,10.2,3.9,14.1,0c63.8-63.8,148.7-99,238.9-99s175.1,35.1,238.9,99c2,2,4.5,2.9,7.1,2.9
			c2.6,0,5.1-1,7.1-2.9c3.9-3.9,3.9-10.2,0-14.1C488.2,473,463.9,454.3,437.7,439z M38,58.6c4-5.7,9.9-9.5,16.8-10.7
			c1.5-0.3,3-0.4,4.5-0.4c9,0,17.2,4.7,21.9,12l-7.6-2.8c-4.6-1.7-9.7,0.1-12.2,4.4C57,68.6,49.5,73.9,40.9,75.4l-7.5,1.3
			C32.6,70.3,34.2,63.9,38,58.6z M37.2,96.3l7.2-1.3c11.6-2,22-8.1,29.4-17l13.6,5.1l0.1,0.6c2.5,14.1-7,27.6-21.1,30.1
			C53.5,116.1,41.1,108.4,37.2,96.3z M65.7,134.1c1.4-0.1,2.8-0.3,4.2-0.5c1.4-0.2,2.7-0.6,4.1-0.9c0.9,3.4,2.5,6.4,4.8,8.9
			L73,156.2l-9.2-11.1C65.4,141.7,66.1,137.9,65.7,134.1z M55.7,203.8c-1-5.4-6.1-9.1-11.6-8.1c-5.4,1-9.1,6.1-8.1,11.6l9.1,51.7
			l-10.5,1.9l-13.3-75.4c-1.7-9.8,3.8-19.5,13.1-22.9l13.6-5.1L68.5,182c1.9,2.3,4.8,3.6,7.7,3.6c0.5,0,1.1,0,1.6-0.1
			c3.5-0.6,6.4-2.9,7.7-6.3l11.9-30.7l15.6,0.1c10,0.1,18.4,7.3,20.2,17.1l13.3,75.4l-10.5,1.9l-9.1-51.7c-1-5.4-6.1-9.1-11.6-8.1
			c-5.4,1-9.1,6.1-8.1,11.6l9.1,51.7L90.6,251c0,0,0,0,0,0s0,0,0,0l-25.7,4.5L55.7,203.8z M94.9,428.8L68.4,275.2l15.8-2.8l26.3,149
			C105.2,423.8,100,426.2,94.9,428.8z M211.6,65.4c0-25,20.4-45.4,45.4-45.4s45.4,20.4,45.4,45.4v58.2c-1.1-0.3-2.1-0.5-3.2-0.7
			l-18.1-3.3c-0.4-0.1-0.6-0.4-0.6-0.8v-4.9c7.9-6.7,12.9-16.6,12.9-27.8V70c0-5.5-4.5-10-10-10h-52.7c-5.5,0-10,4.5-10,10v16.2
			c0,11.2,5.1,21.2,13,27.8v4.8c0,0.4-0.3,0.7-0.6,0.8l-18.1,3.3c-1.1,0.2-2.2,0.5-3.3,0.8V65.4z M257,102.5
			c-9,0-16.3-7.3-16.3-16.3V80h32.7v6.2h0C273.3,95.2,266,102.5,257,102.5z M264.6,131.2l-7.5,10.3l-7.5-10.2
			c1.9-2.6,3.3-5.6,3.9-8.9c1.2,0.1,2.4,0.2,3.7,0.2c1.3,0,2.5-0.1,3.7-0.2C261.3,125.6,262.6,128.6,264.6,131.2z M247,390.1h-12
			V331h12V390.1z M279.1,390.1h-12V331h12V390.1z M289.1,311h-32H257h-0.4H225h-7.5l13.7-78h52.2l13.1,78H289.1z M292,175.6
			c-5.5,0-10,4.5-10,10V213H233v-27.4c0-5.5-4.5-10-10-10s-10,4.5-10,10v35.7l-2.8,15.7c-1.2-0.5-2.5-0.8-3.8-0.8h-4.1v-74.3
			c0-9.6,6.8-17.8,16.3-19.5l12.7-2.3l17.7,24c1.9,2.6,4.9,4.1,8.1,4.1c3.2,0,6.2-1.5,8.1-4.1l17.7-24.1l12.8,2.4
			c9.4,1.7,16.3,10,16.3,19.5v74.3h-4.1c-1.1,0-2.2,0.2-3.2,0.5l-2.5-14.7v-36.6C302,180.1,297.5,175.6,292,175.6z M459.3,47.9
			c6.8,1.2,12.8,5,16.8,10.7c3.7,5.3,5.3,11.7,4.5,18.1l-7.5-1.3c-8.6-1.5-16.1-6.8-20.5-14.3c-1.8-3.2-5.2-5-8.7-5
			c-1.2,0-2.3,0.2-3.5,0.6l-7.6,2.8C438.3,50.9,448.6,46,459.3,47.9z M426.5,83.7l0.1-0.6l13.6-5.1c7.4,8.9,17.8,14.9,29.4,17
			l7.2,1.3c-4,12.1-16.3,19.8-29.2,17.5C433.5,111.3,424.1,97.8,426.5,83.7z M450,144.8l-10.1,11.4l-4.9-14.4c2.4-2.5,4.1-5.7,5-9.2
			c1.3,0.4,2.7,0.7,4.1,0.9c1.4,0.2,2.8,0.4,4.1,0.5C447.9,137.8,448.6,141.5,450,144.8z M367.5,241.1l13.3-75.4
			c1.7-9.8,10.2-17,20.2-17.1l15.2-0.1l10.3,30.3c1.1,3.4,4,5.9,7.5,6.6c0.7,0.1,1.3,0.2,2,0.2c2.8,0,5.6-1.2,7.5-3.4l22.2-25
			l13.9,5.2c9.3,3.5,14.9,13.1,13.1,22.9l-13.3,75.4l-10.5-1.9l9.1-51.7c1-5.4-2.7-10.6-8.1-11.6c-5.4-1-10.6,2.7-11.6,8.1
			l-9.1,51.7l-25.7-4.5c0,0,0,0,0,0c0,0,0,0,0,0l-25.7-4.5l9.1-51.7c1-5.4-2.7-10.6-8.1-11.6c-5.4-1-10.6,2.7-11.6,8.1l-9.1,51.7
			L367.5,241.1z M369.3,408.1l25-142l15.8,2.8l-25.5,144.6C379.6,411.6,374.5,409.8,369.3,408.1z M403.6,421.4l26.3-149l15.8,2.8
			l-26.5,153.7C414,426.2,408.8,423.8,403.6,421.4z"/>
	</g>
</g>
<g>
	<g>
		<linearGradient id="SVGID_3_" gradientUnits="userSpaceOnUse" x1="246.8079" y1="440.1" x2="267.194" y2="440.1">
			<stop  offset="1.025641e-02" style="stop-color:#092845"/>
			<stop  offset="1" style="stop-color:#0046BB"/>
		</linearGradient>
		<path class="st2" d="M257,430.1C257,430.1,257,430.1,257,430.1c-6.4,0-10.2,5.1-10.2,10c0,4.9,3.8,10,10.1,10c0,0,0,0,0.1,0
			c6.4,0,10.2-5.1,10.2-10C267.2,435.2,263.4,430.1,257,430.1z"/>
	</g>
</g>
<g>
	<g>
		<linearGradient id="SVGID_4_" gradientUnits="userSpaceOnUse" x1="293.3528" y1="458.3617" x2="406.1751" y2="458.3617">
			<stop  offset="1.025641e-02" style="stop-color:#092845"/>
			<stop  offset="1" style="stop-color:#0046BB"/>
		</linearGradient>
		<path class="st3" d="M400.7,464.3c-30.1-15.3-62.3-25.6-95.9-30.6c-5.5-0.8-10.6,2.9-11.4,8.4c-0.8,5.5,2.9,10.6,8.4,11.4
			c31.4,4.7,61.6,14.4,89.8,28.7c1.5,0.7,3,1.1,4.5,1.1c3.6,0,7.2-2,8.9-5.5C407.6,472.8,405.6,466.8,400.7,464.3z"/>
	</g>
</g>
</svg>
