<?xml version="1.0" encoding="utf-8"?>
<!-- Generator: Adobe Illustrator 22.1.0, SVG Export Plug-In . SVG Version: 6.00 Build 0)  -->
<svg version="1.1" id="Capa_1" xmlns="http://www.w3.org/2000/svg" xmlns:xlink="http://www.w3.org/1999/xlink" x="0px" y="0px"
	 viewBox="0 0 512 512" style="enable-background:new 0 0 512 512;" xml:space="preserve">
<style type="text/css">
	.st0{fill:url(#SVGID_1_);}
	.st1{fill:url(#SVGID_2_);}
	.st2{fill:url(#SVGID_3_);}
	.st3{fill:url(#SVGID_4_);}
	.st4{fill:url(#SVGID_5_);}
	.st5{fill:url(#SVGID_6_);}
	.st6{fill:url(#SVGID_7_);}
	.st7{fill:url(#SVGID_8_);}
	.st8{fill:url(#SVGID_9_);}
	.st9{fill:url(#SVGID_10_);}
</style>
<g>
	<g>
		
			<linearGradient id="SVGID_1_" gradientUnits="userSpaceOnUse" x1="27.9109" y1="325.296" x2="478.9" y2="325.296" gradientTransform="matrix(1 0 0 -1 0 514)">
			<stop  offset="1.025641e-02" style="stop-color:#092845"/>
			<stop  offset="1" style="stop-color:#0046BB"/>
		</linearGradient>
		<path class="st0" d="M448.9,45.9H58c-16.6,0-30,13.5-30,30V324c0,4.1,3.3,7.5,7.5,7.5h436c4.1,0,7.5-3.3,7.5-7.5V76
			C478.9,59.4,465.4,45.9,448.9,45.9z M463.8,316.5H42.9V76C42.9,67.7,49.7,61,58,61h390.9c8.3,0,15.1,6.8,15.1,15.1L463.8,316.5
			L463.8,316.5z"/>
	</g>
</g>
<g>
	<g>
		
			<linearGradient id="SVGID_2_" gradientUnits="userSpaceOnUse" x1="27.8228" y1="159.8863" x2="478.8136" y2="159.8863" gradientTransform="matrix(1 0 0 -1 0 514)">
			<stop  offset="1.025641e-02" style="stop-color:#092845"/>
			<stop  offset="1" style="stop-color:#0046BB"/>
		</linearGradient>
		<path class="st1" d="M471.4,316.5H35.3c-4.1,0-7.5,3.3-7.5,7.5v37.6c0,16.6,13.5,30,30,30h390.9c16.6,0,30-13.5,30-30V324
			C478.9,319.9,475.6,316.5,471.4,316.5z M463.8,361.6c0,8.3-6.8,15.1-15.1,15.1H58c-8.3,0-15.1-6.8-15.1-15.1v-30h421L463.8,361.6
			L463.8,361.6z"/>
	</g>
</g>
<g>
	<g>
		
			<linearGradient id="SVGID_3_" gradientUnits="userSpaceOnUse" x1="223.319" y1="159.8423" x2="283.4039" y2="159.8423" gradientTransform="matrix(1 0 0 -1 0 514)">
			<stop  offset="1.025641e-02" style="stop-color:#092845"/>
			<stop  offset="1" style="stop-color:#0046BB"/>
		</linearGradient>
		<path class="st2" d="M275.9,346.7h-45.1c-4.1,0-7.5,3.3-7.5,7.5c0,4.1,3.3,7.5,7.5,7.5h45.1c4.1,0,7.5-3.3,7.5-7.5
			C283.4,350,280.1,346.7,275.9,346.7z"/>
	</g>
</g>
<g>
	<g>
		
			<linearGradient id="SVGID_4_" gradientUnits="userSpaceOnUse" x1="57.9534" y1="310.1866" x2="448.8576" y2="310.1866" gradientTransform="matrix(1 0 0 -1 0 514)">
			<stop  offset="1.025641e-02" style="stop-color:#092845"/>
			<stop  offset="1" style="stop-color:#0046BB"/>
		</linearGradient>
		<path class="st3" d="M441.3,76H65.4c-4.1,0-7.5,3.3-7.5,7.5v240.6c0,4.1,3.3,7.5,7.5,7.5h375.9c4.1,0,7.5-3.3,7.5-7.5V83.5
			C448.9,79.4,445.5,76,441.3,76z M433.8,316.5H72.9V91h360.9V316.5L433.8,316.5z"/>
	</g>
</g>
<g>
	<g>
		
			<linearGradient id="SVGID_5_" gradientUnits="userSpaceOnUse" x1="133.1035" y1="54.5616" x2="373.7074" y2="54.5616" gradientTransform="matrix(1 0 0 -1 0 514)">
			<stop  offset="1.025641e-02" style="stop-color:#092845"/>
			<stop  offset="1" style="stop-color:#0046BB"/>
		</linearGradient>
		<path class="st4" d="M351.1,436.9H155.7c-12.4,0-22.6,10.1-22.6,22.6s10.1,22.6,22.6,22.6h195.5c12.4,0,22.6-10.1,22.6-22.6
			C373.7,447,363.6,436.9,351.1,436.9z M351.1,466.9H155.7c-4.1,0-7.5-3.3-7.5-7.5c0-4.1,3.3-7.5,7.5-7.5h195.5
			c4.1,0,7.5,3.3,7.5,7.5C358.6,463.6,355.3,466.9,351.1,466.9z"/>
	</g>
</g>
<g>
	<g>
		
			<linearGradient id="SVGID_6_" gradientUnits="userSpaceOnUse" x1="163.2341" y1="99.6693" x2="343.5768" y2="99.6693" gradientTransform="matrix(1 0 0 -1 0 514)">
			<stop  offset="1.025641e-02" style="stop-color:#092845"/>
			<stop  offset="1" style="stop-color:#0046BB"/>
		</linearGradient>
		<path class="st5" d="M336.1,436.9c-24.9,0-37.6-17.7-37.6-52.6c0-4.1-3.3-7.5-7.5-7.5h-75.2c-4.1,0-7.5,3.3-7.5,7.5
			c0,34.9-12.7,52.6-37.6,52.6c-4.1,0-7.5,3.3-7.5,7.5c0,4.1,3.3,7.5,7.5,7.5h165.4c4.1,0,7.5-3.3,7.5-7.5
			C343.6,440.2,340.2,436.9,336.1,436.9z M207.3,436.9c9.3-10.2,14.7-25.5,15.8-45.1h60.5c1.1,19.6,6.5,34.9,15.8,45.1H207.3z"/>
	</g>
</g>
<g>
	<g>
		
			<linearGradient id="SVGID_7_" gradientUnits="userSpaceOnUse" x1="291.1011" y1="261.4506" x2="389.2793" y2="261.4506" gradientTransform="matrix(1 0 0 -1 0 514)">
			<stop  offset="1.025641e-02" style="stop-color:#092845"/>
			<stop  offset="1" style="stop-color:#0046BB"/>
		</linearGradient>
		<path class="st6" d="M387.1,267.4l-18.1-18.1l10.1-10.1c1.9-1.9,2.6-4.6,1.9-7.1c-0.6-2.6-2.6-4.6-5.1-5.4L300.8,204
			c-2.6-0.8-5.6-0.1-7.5,1.9c-1.9,1.9-2.6,4.8-1.9,7.5l22.6,75.2c0.8,2.6,2.8,4.5,5.4,5.1s5.3-0.1,7.1-1.9l10.7-10.7l18.1,18.1
			c1.4,1.4,3.3,2.2,5.3,2.2s3.9-0.8,5.3-2.2l21.2-21.2C390,275.1,390,270.4,387.1,267.4z M360.5,283.4l-16.6-16.6
			c-1.9-1.9-4.4-2.9-7-2.9s-5,1-7,2.9l-5.5,5.5l-14.9-49.8l49.8,14.9l-5.8,5.8c-1.6,1.6-2.5,3.8-2.5,6c0,2.3,0.9,4.4,2.5,6
			l17.4,17.4L360.5,283.4z"/>
	</g>
</g>
<g>
	<g>
		
			<linearGradient id="SVGID_8_" gradientUnits="userSpaceOnUse" x1="125.615" y1="381.6366" x2="351.0654" y2="381.6366" gradientTransform="matrix(1 0 0 -1 0 514)">
			<stop  offset="1.025641e-02" style="stop-color:#092845"/>
			<stop  offset="1" style="stop-color:#0046BB"/>
		</linearGradient>
		<path class="st7" d="M343.6,106.1H133.1c-4.1,0-7.5,3.3-7.5,7.5v37.6c0,4.1,3.3,7.5,7.5,7.5h210.5c4.1,0,7.5-3.3,7.5-7.5v-37.6
			C351.1,109.4,347.7,106.1,343.6,106.1z M336.1,143.7H140.6v-22.6h195.5V143.7z"/>
	</g>
</g>
<g>
	<g>
		
			<linearGradient id="SVGID_9_" gradientUnits="userSpaceOnUse" x1="155.6574" y1="302.6981" x2="230.8076" y2="302.6981" gradientTransform="matrix(1 0 0 -1 0 514)">
			<stop  offset="1.025641e-02" style="stop-color:#092845"/>
			<stop  offset="1" style="stop-color:#0046BB"/>
		</linearGradient>
		<path class="st8" d="M223.3,188.8h-60.2c-4.1,0-7.5,3.3-7.5,7.5v30c0,4.1,3.3,7.5,7.5,7.5h60.2c4.1,0,7.5-3.3,7.5-7.5v-30
			C230.8,192.1,227.5,188.8,223.3,188.8z M215.7,218.8h-45.1v-15.1h45.1V218.8z"/>
	</g>
</g>
<g>
	<g>
		
			<linearGradient id="SVGID_10_" gradientUnits="userSpaceOnUse" x1="125.615" y1="329.0403" x2="350.979" y2="329.0403" gradientTransform="matrix(1 0 0 -1 0 514)">
			<stop  offset="1.025641e-02" style="stop-color:#092845"/>
			<stop  offset="1" style="stop-color:#0046BB"/>
		</linearGradient>
		<path class="st9" d="M343.6,106.1H133.1c-4.1,0-7.5,3.3-7.5,7.5v142.8c0,4.1,3.3,7.5,7.5,7.5H312c2.4,0,4.6-1.1,6-3
			c1.4-1.9,1.9-4.4,1.1-6.7l-9.5-31.7l31.7,9.5c2.3,0.7,4.8,0.3,6.6-1.1c1.9-1.4,3-3.6,3-6V113.6
			C351.1,109.4,347.7,106.1,343.6,106.1z M336.1,214.7l-35.4-10.6c-2.6-0.8-5.6-0.1-7.5,1.9c-1.9,1.9-2.6,4.8-1.9,7.5l10.7,35.4
			H140.6V121.1h195.5V214.7z"/>
	</g>
</g>
</svg>
